<svg id="Capa_1" enable-background="new 0 0 512 512" height="512" viewBox="0 0 512 512" width="512" xmlns="http://www.w3.org/2000/svg"><path d="m256 7.5c-137.243 0-248.5 111.257-248.5 248.5s111.257 248.5 248.5 248.5 248.5-111.257 248.5-248.5-111.257-248.5-248.5-248.5z" fill="#3c5959"/><path d="m256 7.5c-7.983 0-15.873.392-23.663 1.128 126.142 11.918 224.837 118.112 224.837 247.372s-98.696 235.454-224.837 247.372c7.79.736 15.68 1.128 23.663 1.128 137.243 0 248.5-111.257 248.5-248.5s-111.257-248.5-248.5-248.5z" fill="#394949"/><path d="m256 50.587c-113.447 0-205.413 91.967-205.413 205.413s91.966 205.413 205.413 205.413 205.413-91.966 205.413-205.413-91.966-205.413-205.413-205.413z" fill="#fff"/><path d="m207.337 305.108c-7.561-7.561-7.561-19.819 0-27.379l91.663-91.663c30.87-30.871 64.267-59.676 99.369-85.713 3.912-2.902 9.355-2.521 12.8.924 3.444 3.445 3.825 8.887.923 12.799-26.037 35.101-54.842 68.498-85.713 99.369l-91.663 91.663c-7.56 7.56-19.818 7.56-27.379 0z" fill="#69d8e4"/><path d="m416.653 256c0 .168-.006.334-.006.501h44.76c0-.167.006-.334.006-.501 0-52.829-19.95-100.993-52.718-137.388-9.117 12.127-18.561 24.045-28.308 35.719 22.664 27.695 36.266 63.092 36.266 101.669z" fill="#fd7e42"/><path d="m358.167 132.013c11.667-9.739 23.578-19.176 35.698-28.286-36.45-33.021-84.807-53.14-137.864-53.14v44.76c38.806 0 74.399 13.76 102.166 36.666z" fill="#f9c301"/><path d="m256 95.347v-44.76c-56.851 0-108.304 23.098-145.497 60.418l31.65 31.65c29.093-29.22 69.356-47.308 113.847-47.308z" fill="#fce25c"/><path d="m95.347 256c0-44.236 17.881-84.293 46.807-113.345l-31.65-31.65c-37.026 37.152-59.917 88.399-59.917 144.995 0 .168.006.334.006.501h44.76c0-.167-.006-.333-.006-.501z" fill="#7fd061"/><circle cx="256" cy="256.445" fill="#fbd307" r="33.316"/><path d="m461.407 256.501h-44.76c-.136 44.335-18.231 84.442-47.39 113.432l31.65 31.65c37.259-37.09 60.364-88.387 60.5-145.082z" fill="#fc5327"/><path d="m95.353 256.501h-44.76c.136 56.695 23.241 107.992 60.5 145.082l31.65-31.65c-29.159-28.99-47.254-69.097-47.39-113.432z" fill="#93d87b"/><path d="m303.326 404.987h-94.651c-4.142 0-7.5 3.358-7.5 7.5s3.358 7.5 7.5 7.5h94.651c4.143 0 7.5-3.358 7.5-7.5s-3.358-7.5-7.5-7.5z"/><path d="m303.326 367.99h-94.651c-4.142 0-7.5 3.358-7.5 7.5s3.358 7.5 7.5 7.5h94.651c4.143 0 7.5-3.358 7.5-7.5s-3.358-7.5-7.5-7.5z"/><path d="m437.02 74.981c-48.353-48.352-112.64-74.981-181.02-74.981-94.588 0-181.115 51.844-225.814 135.298-1.956 3.651-.581 8.197 3.07 10.152 3.65 1.957 8.196.582 10.152-3.07 42.084-78.571 123.544-127.38 212.592-127.38 64.374 0 124.894 25.068 170.413 70.587 45.519 45.52 70.587 106.04 70.587 170.413s-25.068 124.894-70.588 170.413c-45.518 45.519-106.038 70.587-170.412 70.587s-124.894-25.068-170.413-70.587-70.587-106.039-70.587-170.413c0-28.487 4.919-56.366 14.622-82.864 1.424-3.89-.574-8.197-4.464-9.621-3.892-1.426-8.197.574-9.621 4.464-10.31 28.155-15.537 57.769-15.537 88.021 0 68.38 26.628 132.667 74.98 181.02 48.353 48.351 112.64 74.98 181.02 74.98s132.667-26.629 181.02-74.98c48.352-48.352 74.98-112.64 74.98-181.02s-26.628-132.667-74.98-181.019z"/><path d="m418.117 118.544c11.804-15.916-8.291-36.029-24.215-24.215-35.385 26.246-69.099 55.326-100.205 86.434l-34.969 34.968c-24.562-1.627-45.084 18.717-43.442 43.442l-13.252 13.252c-10.473 10.473-10.473 27.513 0 37.986 10.472 10.472 27.512 10.473 37.985 0l13.251-13.251c24.577 1.631 45.084-18.73 43.444-43.443l34.969-34.968c31.106-31.108 60.187-64.821 86.434-100.205zm-188.704 181.26c-4.624 4.624-12.148 4.624-16.772 0-4.624-4.625-4.624-12.148 0-16.773l7.365-7.365c3.811 7.108 9.664 12.962 16.772 16.773zm26.587-17.543c-14.204 0-25.815-11.557-25.815-25.816 0-14.235 11.581-25.815 25.815-25.815 12.855 0 23.543 9.445 25.495 21.759.001.004.001.009.002.013 2.487 15.745-9.738 29.859-25.497 29.859zm35.994-45.038c-3.811-7.108-9.665-12.961-16.773-16.772l29.083-29.082c30.587-30.588 63.738-59.184 98.533-84.992 2.16-1.599 4.826 1.08 3.231 3.231-25.81 34.794-54.405 67.946-84.993 98.534z"/><path d="m369.87 76.069c-81.453-51.658-191.967-43.313-264.672 29.635-.002.002-.005.004-.007.006-82.793 83.078-82.842 217.519.073 300.639.063.067.119.138.184.203 40.214 40.214 93.681 62.361 150.552 62.361 56.685 0 110.028-22.022 150.202-62.011.035-.034.063-.072.097-.107 73.13-72.893 80.917-183.143 30.044-264.005-2.207-3.507-6.835-4.559-10.343-2.354-3.506 2.206-4.56 6.836-2.354 10.342 18.562 29.503 28.92 63.326 30.143 98.224h-29.776c-.962-23.908-6.866-46.824-17.589-68.222-1.855-3.703-6.357-5.202-10.065-3.345-3.703 1.855-5.2 6.362-3.345 10.065 28.416 56.711 19.65 128.704-29.045 177.115-2.941 2.925-2.95 7.688-.016 10.622l26.229 26.229c-36.654 33.871-84.005 52.448-134.183 52.448-50.196 0-97.531-18.572-134.184-52.447l26.23-26.23c2.933-2.933 2.928-7.696-.016-10.622-60.137-59.788-60.166-156.803-.563-216.668 48.402-48.613 120.503-57.588 177.616-28.671 1.086.55 2.242.81 3.382.81 2.737 0 5.376-1.504 6.697-4.114 1.871-3.695.392-8.208-3.304-10.079-21.425-10.848-44.387-16.851-68.359-17.884v-29.78c34.974 1.313 68.825 11.792 98.336 30.508 3.496 2.218 8.131 1.181 10.351-2.317 2.22-3.499 1.183-8.133-2.315-10.351zm54.087 187.932h29.779c-1.878 47.539-20.449 92.096-52.915 126.89l-21.059-21.059c26.865-29.148 42.352-66.24 44.195-105.831zm-175.457-205.762v29.776c-39.736 1.731-76.973 17.197-106.243 44.138l-21.059-21.059c34.912-32.539 79.617-51.091 127.302-52.855zm-116.263 311.593-21.058 21.059c-32.466-34.793-51.037-79.35-52.915-126.89h29.779c1.843 39.59 17.33 76.683 44.194 105.831zm-44.248-120.831h-29.781c1.646-47.613 20.066-92.314 52.413-127.273l21.056 21.056c-26.75 29.314-42.073 66.555-43.688 106.217z"/></svg>